<?xml version="1.0" standalone="no"?>
<!DOCTYPE svg PUBLIC "-//W3C//DTD SVG 1.1//EN" "http://www.w3.org/Graphics/SVG/1.1/DTD/svg11.dtd" >
<!--
2023-12-28: Created with FontForge (http://fontforge.org)
-->
<svg xmlns="http://www.w3.org/2000/svg" xmlns:xlink="http://www.w3.org/1999/xlink" version="1.1">
<metadata>
Created by FontForge 20230101 at Thu Dec 28 02:40:50 2023
 By Unknown
Copyright (c) 2023, Unknown
</metadata>
<defs>
<font id="NutIcons-neuralnets-Regular" horiz-adv-x="128" >
  <font-face 
    font-family="NutIcons-neuralnets"
    font-weight="400"
    font-stretch="normal"
    units-per-em="128"
    panose-1="5 10 1 3 1 2 2 2 2 2"
    ascent="112"
    descent="-16"
    bbox="0 -16 128 112"
    underline-thickness="50"
    underline-position="-100"
    unicode-range="U+003F-1F7C9"
  />
    <missing-glyph />
    <glyph glyph-name="question" unicode="?" 
d="M48 -16v24h32v-24h-32zM64 112c18.667 0 33.7852 -4.74023 44.4062 -13.8438s15.5938 -22.1562 15.5938 -34.1562c0 -11.75 -4.4668 -22.1191 -12 -28s-16.3457 -7.35352 -22 -9c-2.43066 -0.708008 -10 -3 -10 -7h-32c-0.380859 11.4404 5.38184 22.2822 12.9062 27.875
s14.749 7.11328 20.2188 8.71875c3.73438 1.09668 11.1611 1.79199 10.875 7.40625c-0.203125 3.99512 -1.02734 6.94727 -4.40625 9.84375s-10.2607 6.15625 -23.5938 6.15625s-20.2148 -3.25977 -23.5938 -6.15625s-4.40625 -5.84375 -4.40625 -9.84375h-32
c0 12 4.97266 25.0527 15.5938 34.1562s25.7393 13.8438 44.4062 13.8438z" />
    <glyph glyph-name="guillemotleft" unicode="&#xab;" 
d="M60 112h16l-48 -64l48 -64h-16l-48 64zM88 96h16l-36 -48l36 -48h-16l-36 48z" />
    <glyph glyph-name="guillemotright" unicode="&#xbb;" 
d="M68 -16h-16l48 64l-48 64h16l48 -64zM40 0h-16l36 48l-36 48h16l36 -48z" />
    <glyph glyph-name="multiply" unicode="&#xd7;" 
d="M16 112l48 -48l48 48l16 -16l-48 -48l48 -48l-16 -16l-48 48l-48 -48l-16 16l48 48l-48 48z" />
    <glyph glyph-name="bullet" unicode="&#x2022;" 
d="M64 80c17.6729 0 32 -14.3271 32 -32s-14.3271 -32 -32 -32s-32 14.3271 -32 32s14.3271 32 32 32zM8 104v-112h112v112h-112zM0 112h128v-128h-128v128z" />
    <glyph glyph-name="uni2042" unicode="&#x2042;" 
d="M108 76c0 2.20898 1.79102 4 4 4s4 -1.79102 4 -4s-1.79102 -4 -4 -4s-4 1.79102 -4 4zM52.0088 44.0176c0 2.20898 1.79102 4 4 4s4 -1.79102 4 -4s-1.79102 -4 -4 -4s-4 1.79102 -4 4zM12 74c0 3.31348 2.68652 6 6 6s6 -2.68652 6 -6s-2.68652 -6 -6 -6
s-6 2.68652 -6 6zM20.0088 92.0176c0 2.20898 1.79102 4 4 4s4 -1.79102 4 -4s-1.79102 -4 -4 -4s-4 1.79102 -4 4zM56.0088 72.0176c0 2.20898 1.79102 4 4 4s4 -1.79102 4 -4s-1.79102 -4 -4 -4s-4 1.79102 -4 4zM80.0088 40.0176c0 2.20898 1.79102 4 4 4
s4 -1.79102 4 -4s-1.79102 -4 -4 -4s-4 1.79102 -4 4zM100 46.2422c0 3.31445 2.68652 6 6 6s6 -2.68555 6 -6c0 -3.31348 -2.68652 -6 -6 -6s-6 2.68652 -6 6zM84.0088 96.0176c0 4.41797 3.58203 8 8 8s8 -3.58203 8 -8c0 -4.41895 -3.58203 -8 -8 -8s-8 3.58105 -8 8z
M20.0176 54.0176c0 5.51758 4.47266 9.99121 9.99121 9.99121c5.51758 0 9.99121 -4.47363 9.99121 -9.99121c0 -5.51855 -4.47363 -9.99121 -9.99121 -9.99121c-5.51855 0 -9.99121 4.47266 -9.99121 9.99121zM40.0088 100.018c0 2.20898 1.79102 4 4 4s4 -1.79102 4 -4
s-1.79102 -4 -4 -4s-4 1.79102 -4 4zM88.0088 60.0176c0 2.20898 1.79102 4 4 4s4 -1.79102 4 -4s-1.79102 -4 -4 -4s-4 1.79102 -4 4zM44.0088 52.0176c0 2.20898 1.79102 4 4 4s4 -1.79102 4 -4s-1.79102 -4 -4 -4s-4 1.79102 -4 4zM84.0088 76.0176
c0 2.20898 1.79102 4 4 4s4 -1.79102 4 -4s-1.79102 -4 -4 -4s-4 1.79102 -4 4zM64.0088 86.0176c0 3.31348 2.68652 6 6 6s6 -2.68652 6 -6s-2.68652 -6 -6 -6s-6 2.68652 -6 6zM36.0088 76.0176c0 4.41797 3.58203 8 8 8s8 -3.58203 8 -8c0 -4.41895 -3.58203 -8 -8 -8
s-8 3.58105 -8 8zM60.0088 58.0088c0 5.51758 4.47363 9.99121 9.99121 9.99121s9.99121 -4.47363 9.99121 -9.99121c0 -5.51855 -4.47363 -9.99121 -9.99121 -9.99121s-9.99121 4.47266 -9.99121 9.99121zM102 20c-3.31152 0 -6 -5.37695 -6 -12s2.68848 -12 6 -12
s6 5.37695 6 12s-2.68848 12 -6 12zM101.875 28h0.25c7.68652 0 13.875 -8.02832 13.875 -18v-4c0 -9.97168 -6.18848 -18 -13.875 -18h-0.25c-7.68652 0 -13.875 8.02832 -13.875 18v4c0 9.97168 6.18848 18 13.875 18zM70 20c-3.31152 0 -6 -5.37695 -6 -12
s2.68848 -12 6 -12s6 5.37695 6 12s-2.68848 12 -6 12zM69.875 28h0.25c7.68652 0 13.875 -8.02832 13.875 -18v-4c0 -9.97168 -6.18848 -18 -13.875 -18h-0.25c-7.68652 0 -13.875 8.02832 -13.875 18v4c0 9.97168 6.18848 18 13.875 18zM38 20
c-3.31152 0 -6 -5.37695 -6 -12s2.68848 -12 6 -12s6 5.37695 6 12s-2.68848 12 -6 12zM37.875 28h0.25c7.68652 0 13.875 -8.02832 13.875 -18v-4c0 -9.97168 -6.18848 -18 -13.875 -18h-0.25c-7.68652 0 -13.875 8.02832 -13.875 18v4c0 9.97168 6.18848 18 13.875 18z
M8 20l12 12v-44h-8v32h-4z" />
    <glyph glyph-name="arrowup" unicode="&#x2191;" 
d="M128 52v-16l-64 48l-64 -48v16l64 48zM112 24v-16l-48 36l-48 -36v16l48 36z" />
    <glyph glyph-name="arrowdown" unicode="&#x2193;" 
d="M0 44v16l64 -48l64 48v-16l-64 -48zM16 72v16l48 -36l48 36v-16l-48 -36z" />
    <glyph glyph-name="uni21B6" unicode="&#x21b6;" 
d="M72 100c30.8096 0 56 -25.1904 56 -56h-20c0 20.001 -15.999 36 -36 36c-18.6475 0 -33.8115 -13.9082 -35.7793 -32h15.7793l-26 -48l-26 48h16.1602c2.06934 28.958 26.376 52 55.8398 52z" />
    <glyph glyph-name="uni21B7" unicode="&#x21b7;" 
d="M56 100c29.4639 0 53.7705 -23.042 55.8398 -52h16.1602l-26 -48l-26 48h15.7793c-1.96777 18.0918 -17.1318 32 -35.7793 32c-20.001 0 -36 -15.999 -36 -36h-20c0 30.8096 25.1904 56 56 56z" />
    <glyph glyph-name="house" unicode="&#x2302;" 
d="M64 112l64 -48v-80h-48v32h-32v-32h-48v80z" />
    <glyph glyph-name="uni23CF" unicode="&#x23cf;" 
d="M0 20h128v-32h-128v32zM0 44l64 64l64 -64h-128z" />
    <glyph glyph-name="uni23E9" unicode="&#x23e9;" 
d="M0 112l56 -49.7773v49.7773l72 -64l-72 -64v49.7773l-56 -49.7773v128z" />
    <glyph glyph-name="uni23EA" unicode="&#x23ea;" 
d="M128 -16l-56 49.7773v-49.7773l-72 64l72 64v-49.7773l56 49.7773v-128z" />
    <glyph glyph-name="uni23EB" unicode="&#x23eb;" 
d="M0 -16l49.7773 56h-49.7773l64 72l64 -72h-49.7773l49.7773 -56h-128z" />
    <glyph glyph-name="uni23EC" unicode="&#x23ec;" 
d="M128 112l-49.7773 -56h49.7773l-64 -72l-64 72h49.7773l-49.7773 56h128z" />
    <glyph glyph-name="uni23ED" unicode="&#x23ed;" 
d="M0 112l52 -52v52l52 -52v52h24v-128h-24v52l-52 -52v52l-52 -52v128z" />
    <glyph glyph-name="uni23EE" unicode="&#x23ee;" 
d="M128 112v-128l-52 52v-52l-52 52v-52h-24v128h24v-52l52 52v-52z" />
    <glyph glyph-name="uni23EF" unicode="&#x23ef;" 
d="M104 112h24v-128h-24v128zM64 112h24v-128h-24v64l-64 -64v128l64 -64v64z" />
    <glyph glyph-name="uni23F4" unicode="&#x23f4;" 
d="M128 -16l-128 64l128 64v-128z" />
    <glyph glyph-name="uni23F5" unicode="&#x23f5;" 
d="M0 112l128 -64l-128 -64v128z" />
    <glyph glyph-name="uni23F6" unicode="&#x23f6;" 
d="M0 -16l64 128l64 -128h-128z" />
    <glyph glyph-name="uni23F7" unicode="&#x23f7;" 
d="M128 112l-64 -128l-64 128h128z" />
    <glyph glyph-name="uni23F8" unicode="&#x23f8;" 
d="M80 112h48v-128h-48v128zM0 112h48v-128h-48v128z" />
    <glyph glyph-name="uni23F9" unicode="&#x23f9;" 
d="M0 112h128v-128h-128v128z" />
    <glyph glyph-name="uni23FA" unicode="&#x23fa;" 
d="M128 48c0 -35.3223 -28.6777 -64 -64 -64s-64 28.6777 -64 64s28.6777 64 64 64s64 -28.6777 64 -64z" />
    <glyph glyph-name="uni23FB" unicode="&#x23fb;" 
d="M64 112c6.62305 0 12 -5.37695 12 -12v-56c0 -6.62305 -5.37695 -12 -12 -12s-12 5.37695 -12 12v56c0 6.62305 5.37695 12 12 12zM36 97.0059v-30.2695c-5.00977 -6.18066 -8 -14.0781 -8 -22.7363c0 -20.0244 15.9756 -36 36 -36s36 15.9756 36 36
c0 8.6582 -2.99023 16.5557 -8 22.7363v30.2695c18.9883 -10.1045 32 -30.1074 32 -53.0059c0 -32.9951 -27.0049 -60 -60 -60s-60 27.0049 -60 60c0 22.8984 13.0117 42.9014 32 53.0059z" />
    <glyph glyph-name="block" unicode="&#x2588;" 
d="M0 112h128v-128h-128v128z" />
    <glyph glyph-name="invbullet" unicode="&#x25d8;" 
d="M64 80c-17.6729 0 -32 -14.3271 -32 -32s14.3271 -32 32 -32s32 14.3271 32 32s-14.3271 32 -32 32zM0 112h128v-128h-128v128z" />
    <glyph glyph-name="uni25EF" unicode="&#x25ef;" 
d="M128 48c0 35.3232 -28.6768 64 -64 64s-64 -28.6768 -64 -64s28.6768 -64 64 -64s64 28.6768 64 64zM120 48c0 -30.9072 -25.0928 -56 -56 -56s-56 25.0928 -56 56s25.0928 56 56 56s56 -25.0928 56 -56z" />
    <glyph glyph-name="smileface" unicode="&#x263a;" 
d="M58.7646 13.0137c17.5127 -2.06055 32.6846 6.00977 36.1328 16.3545l-3.79492 1.26465c-2.55078 -7.65234 -15.374 -15.5869 -31.8711 -13.6465zM73 69.0859c0 -9.98242 -4.70996 -18.0859 -10.5107 -18.0859s-10.5098 8.10352 -10.5098 18.0859
c0 9.98145 4.70898 18.0859 10.5098 18.0859s10.5107 -8.10449 10.5107 -18.0859zM45.8184 63.373c0 -5.17285 -3.0957 -9.37305 -6.90918 -9.37305s-6.90918 4.2002 -6.90918 9.37305c0 5.17383 3.0957 9.37402 6.90918 9.37402s6.90918 -4.2002 6.90918 -9.37402zM128 48
c0 35.3223 -28.6777 64 -64 64s-64 -28.6777 -64 -64s28.6777 -64 64 -64s64 28.6777 64 64zM124 48c0 -33.1152 -26.8848 -60 -60 -60s-60 26.8848 -60 60s26.8848 60 60 60s60 -26.8848 60 -60z" />
    <glyph glyph-name="uni2699" unicode="&#x2699;" 
d="M64 62c-7.73242 0 -14 -6.26758 -14 -14s6.26758 -14 14 -14s14 6.26758 14 14s-6.26758 14 -14 14zM58.8438 108.75l7.46875 -18.8125c4.86035 -0.264648 9.49902 -1.37695 13.7812 -3.15625l14.9062 13.7188c4.91113 -2.90625 9.38086 -6.47559 13.2812 -10.5938
l-10.0625 -17.5938c2.71973 -3.82129 4.83203 -8.09668 6.15625 -12.7188l20.0312 -3.09375c0.387695 -2.78027 0.59375 -5.61328 0.59375 -8.5s-0.206055 -5.71973 -0.59375 -8.5l-20.0312 -3.09375c-1.32422 -4.62207 -3.43652 -8.89746 -6.15625 -12.7188
l10.0625 -17.5938c-3.90039 -4.11816 -8.37012 -7.6875 -13.2812 -10.5938l-14.9062 13.7188c-4.28223 -1.7793 -8.9209 -2.8916 -13.7812 -3.15625l-7.46875 -18.8125c-5.78906 0.484375 -11.3467 1.73047 -16.5625 3.71875l1.4375 20.25
c-4.17969 2.30859 -7.9082 5.30664 -11.0625 8.84375l-19.4062 -5.90625c-3.12598 4.67578 -5.59668 9.81348 -7.34375 15.2812l16.6875 11.4688c-0.391602 2.30469 -0.59375 4.67773 -0.59375 7.09375s0.202148 4.78906 0.59375 7.09375l-16.6875 11.4688
c1.74707 5.46777 4.21777 10.6055 7.34375 15.2812l19.4062 -5.90625c3.1543 3.53711 6.88281 6.53516 11.0625 8.84375l-1.4375 20.25c5.21582 1.98828 10.7734 3.23438 16.5625 3.71875z" />
    <glyph glyph-name="uni273D" unicode="&#x273d;" 
d="M48 60c0 15.4639 12.5361 28 28 28s28 -12.5361 28 -28s-12.5361 -28 -28 -28s-28 12.5361 -28 28zM20 32l12 12v-44h-8v32h-4z" />
    <glyph glyph-name="uni27F2" unicode="&#x27f2;" 
d="M63.8789 104c0.0410156 0 0.0625 -0.00683594 0.103516 -0.00683594c5.01758 0 9.88281 -0.661133 14.5117 -1.90137c23.8818 -6.39941 41.5059 -28.2021 41.5059 -54.0918s-17.624 -47.6924 -41.5059 -54.0918c-4.62891 -1.24023 -9.44141 -1.96875 -14.459 -1.96875
c-20.7354 0 -38.8535 11.2939 -48.5332 28.0605c0 0 17.2607 10.0615 17.3223 10c3.16992 -5.49121 7.68555 -10.0078 13.1758 -13.1777c5.28809 -3.05273 11.4375 -4.86133 17.9775 -4.86133c13.3301 0 24.9775 7.25977 31.2002 18.0391
c3.05273 5.28809 4.86133 11.4375 4.86133 17.9775c0 13.3301 -7.25977 24.9775 -18.0391 31.2002c-5.28809 3.05273 -11.4805 4.81445 -18.0195 4.81445c-8.91895 0 -17.084 -3.25 -23.375 -8.62891l19.002 -10.9707l-51.7129 -25.5703l-3.71289 57.5703l18.4473 -10.6504
c10.2188 11.2012 24.917 18.2227 41.25 18.2578z" />
    <glyph glyph-name="uni292E" unicode="&#x292e;" 
d="M92.2852 36.6855l11.916 -11.916l11.3145 11.3145l8.48438 -48.084l-48.084 8.48438l11.3145 11.3145l-11.916 11.916zM21.5742 107.396l36.7695 -36.7695l-16.9707 -16.9707l-36.7695 36.7695zM124 108l-5.94727 -48.4629l-12.1973 10.9785
c-22.0654 -26.7148 -53.459 -57.5195 -84.2812 -81.9121l-16.9707 16.9707c32.2412 25.3145 61.3516 55.2402 83.2695 81.125l-11.4434 10.3008z" />
    <glyph glyph-name="uni29C9" unicode="&#x29c9;" 
d="M109.184 34l-5.2168 -12h-81.2188l-12.1719 -28h89.457l17.3906 40h-8.24023zM26.6562 36l-3.47852 -8h76.8555l3.47852 8h-76.8555zM109.184 68l-5.2168 -12h-81.2188l-12.1719 -28h10.4199l4.34766 10h79.0371l13.043 30h-8.24023zM26.6562 70l-3.47852 -8h76.8555
l3.47852 8h-76.8555zM27.9668 102l-17.3906 -40h10.4199l4.34766 10h79.0371l13.043 30h-89.457zM24.0332 108h102.543l-14.7832 -34h14.7832l-14.7832 -34h14.7832l-22.6094 -52h-102.543l14.7832 34h-14.7832l14.7832 34h-14.7832z" />
    <glyph glyph-name="uni2B1F" unicode="&#x2b1f;" 
d="M64 108.603l63.7207 -46.2959l-24.3389 -74.9092h-78.7637l-24.3389 74.9092z" />
    <glyph glyph-name="uniF00A" unicode="&#xf00a;" 
d="M64 112c35.3438 0 64 -28.6562 64 -64c0 -28.2656 -18.3203 -52.25 -43.7354 -60.7266c-3.24219 -0.624023 -4.40625 1.36719 -4.40625 3.07031c0 2.10938 0.0859375 9.00879 0.0859375 17.5635c0 5.96777 -2.03809 9.8584 -4.34375 11.8428
c14.2578 1.58594 29.2266 7 29.2266 31.5859c0 6.99219 -2.47656 12.6953 -6.57812 17.1758c0.65625 1.61621 2.85938 8.12109 -0.640625 16.9375c0 0 -5.37402 1.72559 -17.585 -6.5625c-5.10938 1.4248 -10.5869 2.13574 -16.0234 2.15918
c-5.44141 -0.0234375 -10.9141 -0.726562 -16.0156 -2.15234c-12.2344 8.28125 -17.6016 6.5625 -17.6016 6.5625c-3.48828 -8.80859 -1.28516 -15.3203 -0.632812 -16.9453c-4.08691 -4.48047 -6.58203 -10.1826 -6.58203 -17.1748
c0 -24.5244 14.9453 -30.0156 29.1523 -31.6338c-1.8252 -1.59277 -3.48145 -4.4209 -4.0625 -8.5459c-3.64062 -1.6416 -12.8828 -4.40625 -18.625 5.3125c-1.14062 1.92969 -4.75488 6.65332 -9.80957 6.59375c-5.29199 -0.0625 -2.13379 -2.98828 0.115234 -4.2168
c2.74902 -1.50195 5.85938 -7.18164 6.5498 -9.0332c1.34473 -3.60352 5.46973 -10.4795 21.5586 -7.54688c0.03125 -5.34375 0.0898438 -10.3906 0.0898438 -11.9141c0 -1.6875 -1.16797 -3.66406 -4.36719 -3.07812c-25.4336 8.46094 -43.7695 32.4453 -43.7695 60.7266
c0 35.3438 28.6562 64 64 64z" />
    <glyph glyph-name="u1F304" unicode="&#x1f304;" 
d="M104 78c0 9.93457 -8.06543 18 -18 18s-18 -8.06543 -18 -18s8.06543 -18 18 -18s18 8.06543 18 18zM100 78c0 -7.72754 -6.27246 -14 -14 -14s-14 6.27246 -14 14s6.27246 14 14 14s14 -6.27246 14 -14zM0 112h4h120h4v-4v-120v-4h-4h-120h-4v4v120v4zM120 5.99365
v98.0063h-112l1.77636e-15 -70.0246c40.137 39.7055 46.0106 37.8433 112 -27.9818z" />
    <glyph glyph-name="u1F43E" unicode="&#x1f43e;" 
d="M83.4453 35.4766c-6.24023 -23.5176 -28.1104 -13.6328 -14.5801 6.58984zM90.6602 73.8008c5.82129 -2.40723 7.59961 -15.5449 -3.91992 -31.0352l-14.5801 6.59082c5.07812 20.3389 13.3633 26.5684 18.5 24.4443zM37.1104 42.5596l14.5801 -6.59082
c-6.24023 -23.5166 -28.1104 -13.6318 -14.5801 6.59082zM61.1123 73.2959c4.98828 -2.45215 5.78516 -12.7871 -6.12695 -30.0371l-14.5801 6.58984c4.0166 18.8818 15.0537 26.2266 20.707 23.4473z" />
    <glyph glyph-name="u1F463" unicode="&#x1f463;" 
d="M114.161 73.165c-6.24023 -23.5166 -28.1104 -13.6318 -14.5801 6.59082zM121.376 111.49c5.82129 -2.40723 7.59961 -15.5449 -3.91992 -31.0352l-14.5791 6.59082c5.07715 20.3389 13.3623 26.5684 18.499 24.4443zM6.39453 4.37695l14.5801 -6.58984
c-6.24023 -23.5176 -28.1104 -13.6318 -14.5801 6.58984zM30.3965 35.1143c4.98828 -2.45312 5.78516 -12.7881 -6.12695 -30.0371l-14.5801 6.58984c4.0166 18.8809 15.0527 26.2266 20.707 23.4473z" />
    <glyph glyph-name="u1F4E1" unicode="&#x1f4e1;" 
d="M20 24c11.0459 0 20 -8.9541 20 -20s-8.9541 -20 -20 -20s-20 8.9541 -20 20s8.9541 20 20 20zM8 72c44.1826 0 80 -35.8174 80 -80c0 -2.7002 -0.134766 -5.36816 -0.396484 -8h-24.1816c0.374023 2.61426 0.578125 5.28223 0.578125 8c0 30.9277 -25.0723 56 -56 56
c-2.71777 0 -5.38574 -0.204102 -8 -0.578125v24.1816c2.63184 0.261719 5.2998 0.396484 8 0.396484zM8 112c66.2744 0 120 -53.7256 120 -120c0 -2.68945 -0.0976562 -5.35547 -0.271484 -8h-24.0625c0.217773 2.63867 0.333984 5.30566 0.333984 8
c0 53.0195 -42.9805 96 -96 96c-2.69434 0 -5.36133 -0.116211 -8 -0.333984v24.0625c2.64453 0.173828 5.31055 0.271484 8 0.271484z" />
    <glyph glyph-name="u1F4F7" unicode="&#x1f4f7;" 
d="M64 68c-14.3594 0 -26 -11.6406 -26 -26s11.6406 -26 26 -26s26 11.6406 26 26s-11.6406 26 -26 26zM48 92h32l8 -12h40v-76h-128v76h8l2 4h8l2 -4h20z" />
    <glyph glyph-name="u1F7C9" unicode="&#x1f7c9;" 
d="M64 108.603l8.06641 -55.8984l55.6543 9.60254l-50.6689 -24.9453l26.3301 -49.9639l-39.3818 40.4814l-39.3818 -40.4814l26.3301 49.9639l-50.6689 24.9453l55.6543 -9.60254z" />
  </font>
</defs>
</svg>
